<?xml version="1.0" encoding="UTF-8"?>
<!DOCTYPE svg PUBLIC "-//W3C//DTD SVG 1.1//EN" "http://www.w3.org/Graphics/SVG/1.1/DTD/svg11.dtd">
<!-- Creator: CorelDRAW -->
<svg xmlns="http://www.w3.org/2000/svg" xml:space="preserve" width="1920mm" height="1080mm" style="shape-rendering:geometricPrecision; text-rendering:geometricPrecision; image-rendering:optimizeQuality; fill-rule:evenodd; clip-rule:evenodd"
viewBox="0 0 1920 1080"
 xmlns:xlink="http://www.w3.org/1999/xlink">
 <defs>
  <style type="text/css">
   <![CDATA[
    .str1 {stroke:white;stroke-width:0.0762}
    .str0 {stroke:#6699FF;stroke-width:0.2}
    .fil2 {fill:none}
    .fil4 {fill:none;fill-rule:nonzero}
    .fil3 {fill:white;fill-rule:nonzero}
    .fil0 {fill:black;fill-opacity:0.000000}
    .fil1 {fill:#6699FF}
   ]]>
  </style>
   <clipPath id="id0">
    <path d="M1414.09 289.449c31.7837,50.07 21.4828,129.592 -15.5967,190.854 -37.0816,61.264 -100.647,104.265 -160.387,101.909 -59.7395,-2.0629 -115.654,-49.4824 -153.323,-111.332 -37.6686,-61.5568 -57.0915,-137.251 -29.4286,-185.259 27.9572,-47.7139 103.589,-67.7419 178.337,-67.4474 74.7479,0.5891 148.909,21.206 180.398,71.2763z"/>
   </clipPath>
   <clipPath id="id1">
    <path d="M1414.09 289.449c31.7837,50.07 21.4828,129.592 -15.5967,190.854 -37.0816,61.264 -100.647,104.265 -160.387,101.909 -59.7395,-2.0629 -115.654,-49.4824 -153.323,-111.332 -37.6686,-61.5568 -57.0915,-137.251 -29.4286,-185.259 27.9572,-47.7139 103.589,-67.7419 178.337,-67.4474 74.7479,0.5891 148.909,21.206 180.398,71.2763z"/>
   </clipPath>
 </defs>
 <g id="Capa_x0020_1">
  <metadata id="CorelCorpID_0Corel-Layer"/>
  <g style="clip-path:url(#id0)">
   <polygon class="fil0" points="1042.32,218.169 1433.02,218.169 1433.02,582.304 1042.32,582.304 "/>
  </g>
  <g style="clip-path:url(#id1)">
   <g id="_462492720">
    <path id="_4624924561" class="fil1 str0" d="M1432.08 312.732c31.7836,50.0701 21.4826,129.592 -15.597,190.854 -37.0814,61.264 -100.647,104.265 -160.387,101.909 -59.7396,-2.0629 -115.654,-49.4825 -153.323,-111.332 -37.6686,-61.5568 -57.0915,-137.251 -29.4285,-185.259 27.957,-47.714 103.589,-67.7418 178.337,-67.4475 74.748,0.5892 148.909,21.2061 180.398,71.2764z"/>
   </g>
  </g>
  <path class="fil2" d="M1414.09 289.449c31.7837,50.07 21.4828,129.592 -15.5967,190.854 -37.0816,61.264 -100.647,104.265 -160.387,101.909 -59.7395,-2.0629 -115.654,-49.4824 -153.323,-111.332 -37.6686,-61.5568 -57.0915,-137.251 -29.4286,-185.259 27.9572,-47.7139 103.589,-67.7419 178.337,-67.4474 74.7479,0.5891 148.909,21.206 180.398,71.2763z"/>
  <polygon class="fil3" points="1139.67,336.782 1142.87,336.782 1142.87,365.475 1155.06,365.475 1155.06,368.54 1139.67,368.54 "/>
  <path id="1" class="fil3" d="M1182.99 345.05l0 23.4907 -2.9769 0 0 -4.0379c-1.2673,1.54 -2.6895,2.6968 -4.2663,3.4779 -1.5769,0.7737 -3.3011,1.1642 -5.1727,1.1642 -3.3232,0 -6.16,-1.2084 -8.518,-3.6179 -2.3505,-2.4095 -3.5295,-5.3422 -3.5295,-8.798 0,-3.3821 1.1937,-6.2706 3.5664,-8.6727 2.3726,-2.4021 5.2316,-3.6105 8.5695,-3.6105 1.9306,0 3.6769,0.4126 5.2317,1.2305 1.5621,0.8253 2.9326,2.0558 4.1189,3.6916l0 -4.3179 2.9769 0zm-12.0917 2.3137c-1.68,0 -3.2347,0.4126 -4.6642,1.2379 -1.4221,0.8326 -2.5569,1.9895 -3.3969,3.4926 -0.84,1.4958 -1.26,3.0801 -1.26,4.7453 0,1.658 0.42,3.2422 1.2674,4.7527 0.8547,1.5106 1.9895,2.6821 3.4263,3.5295 1.4295,0.84 2.9695,1.26 4.6053,1.26 1.6579,0 3.2274,-0.42 4.7085,-1.2526 1.481,-0.8326 2.6232,-1.96 3.419,-3.3895 0.8031,-1.4221 1.201,-3.0285 1.201,-4.8116 0,-2.719 -0.8989,-4.9959 -2.6895,-6.8232 -1.7905,-1.8274 -3.9937,-2.7411 -6.6169,-2.7411z"/>
  <path id="12" class="fil3" d="M1212.59 349.935l-2.3948 1.4884c-2.0779,-2.7484 -4.9,-4.1263 -8.4885,-4.1263 -2.8589,0 -5.239,0.921 -7.1327,2.7631 -1.8937,1.8422 -2.8368,4.0822 -2.8368,6.7127 0,1.7169 0.4347,3.3232 1.3042,4.8411 0.8695,1.5106 2.0632,2.6822 3.5811,3.5148 1.5179,0.8326 3.22,1.2526 5.1063,1.2526 3.4559,0 6.278,-1.3705 8.4664,-4.1263l2.3948 1.5768c-1.1274,1.6874 -2.6306,2.9916 -4.5243,3.9201 -1.8937,0.9284 -4.0453,1.3926 -6.4621,1.3926 -3.7137,0 -6.7938,-1.1789 -9.2401,-3.5369 -2.4463,-2.3652 -3.6695,-5.2316 -3.6695,-8.6137 0,-2.2769 0.5674,-4.3916 1.7168,-6.3369 1.1422,-1.9527 2.7117,-3.4706 4.7159,-4.5685 1.9968,-1.0905 4.2369,-1.6431 6.7127,-1.6431 1.5547,0 3.0505,0.2431 4.5021,0.7147 1.4442,0.479 2.6674,1.0979 3.6769,1.8569 1.0095,0.7663 1.8642,1.7316 2.5716,2.9179z"/>
  <path id="123" class="fil3" d="M1218.01 345.05l3.0432 0 0 10.9716c0,2.6748 0.1473,4.5169 0.4347,5.5264 0.4347,1.4369 1.2526,2.5716 2.4684,3.4116 1.2158,0.8327 2.6674,1.2527 4.3548,1.2527 1.68,0 3.1095,-0.4127 4.2811,-1.2232 1.1716,-0.8105 1.9821,-1.879 2.4316,-3.2053 0.3021,-0.9063 0.4495,-2.8295 0.4495,-5.7622l0 -10.9716 3.0874 0 0 11.5317c0,3.2347 -0.3758,5.6737 -1.1274,7.3169 -0.759,1.6431 -1.8937,2.9252 -3.4116,3.8537 -1.5179,0.9284 -3.4264,1.3926 -5.7106,1.3926 -2.2916,0 -4.2,-0.4642 -5.7327,-1.3926 -1.5326,-0.9285 -2.6747,-2.2253 -3.4337,-3.8832 -0.7516,-1.6653 -1.1347,-4.1632 -1.1347,-7.5011l0 -11.318z"/>
  <path id="1234" class="fil3" d="M1245.27 345.05l3.0211 0 0 4.2147c1.2084,-1.6137 2.5495,-2.8221 4.0158,-3.6179 1.4663,-0.7958 3.0653,-1.201 4.7969,-1.201 1.7537,0 3.3084,0.4494 4.6716,1.341 1.3558,0.8916 2.3653,2.0927 3.0063,3.6032 0.6485,1.5106 0.9727,3.8685 0.9727,7.059l0 12.0917 -2.999 0 0 -11.2075c0,-2.7042 -0.1179,-4.5095 -0.3463,-5.4158 -0.3611,-1.5547 -1.0316,-2.719 -2.0263,-3.5074 -0.9948,-0.7811 -2.2916,-1.179 -3.8906,-1.179 -1.8274,0 -3.4632,0.6043 -4.9074,1.8127 -1.4442,1.2158 -2.4021,2.7116 -2.859,4.4948 -0.2874,1.1642 -0.4347,3.2937 -0.4347,6.3884l0 8.6138 -3.0211 0 0 -23.4907z"/>
  <polygon id="12345" class="fil3" points="1270.31,345.05 1287.56,345.05 1274.26,365.866 1287.13,365.866 1287.13,368.54 1269.06,368.54 1282.36,347.71 1270.31,347.71 "/>
  <path id="123456" class="fil3" d="M1314.42 345.05l0 23.4907 -2.9769 0 0 -4.0379c-1.2673,1.54 -2.6895,2.6968 -4.2663,3.4779 -1.5769,0.7737 -3.3011,1.1642 -5.1727,1.1642 -3.3232,0 -6.16,-1.2084 -8.518,-3.6179 -2.3505,-2.4095 -3.5295,-5.3422 -3.5295,-8.798 0,-3.3821 1.1937,-6.2706 3.5664,-8.6727 2.3726,-2.4021 5.2316,-3.6105 8.5695,-3.6105 1.9306,0 3.6769,0.4126 5.2317,1.2305 1.5621,0.8253 2.9326,2.0558 4.1189,3.6916l0 -4.3179 2.9769 0zm-12.0917 2.3137c-1.68,0 -3.2347,0.4126 -4.6642,1.2379 -1.4221,0.8326 -2.5569,1.9895 -3.3969,3.4926 -0.84,1.4958 -1.26,3.0801 -1.26,4.7453 0,1.658 0.42,3.2422 1.2674,4.7527 0.8547,1.5106 1.9895,2.6821 3.4263,3.5295 1.4295,0.84 2.9695,1.26 4.6053,1.26 1.6579,0 3.2274,-0.42 4.7085,-1.2526 1.481,-0.8326 2.6232,-1.96 3.419,-3.3895 0.8031,-1.4221 1.201,-3.0285 1.201,-4.8116 0,-2.719 -0.8989,-4.9959 -2.6895,-6.8232 -1.7905,-1.8274 -3.9937,-2.7411 -6.6169,-2.7411z"/>
  <polygon id="1234567" class="fil4 str1" points="1139.67,336.782 1142.87,336.782 1142.87,365.475 1155.06,365.475 1155.06,368.54 1139.67,368.54 "/>
  <path id="12345678" class="fil4 str1" d="M1182.99 345.05l0 23.4907 -2.9769 0 0 -4.0379c-1.2673,1.54 -2.6895,2.6968 -4.2663,3.4779 -1.5769,0.7737 -3.3011,1.1642 -5.1727,1.1642 -3.3232,0 -6.16,-1.2084 -8.518,-3.6179 -2.3505,-2.4095 -3.5295,-5.3422 -3.5295,-8.798 0,-3.3821 1.1937,-6.2706 3.5664,-8.6727 2.3726,-2.4021 5.2316,-3.6105 8.5695,-3.6105 1.9306,0 3.6769,0.4126 5.2317,1.2305 1.5621,0.8253 2.9326,2.0558 4.1189,3.6916l0 -4.3179 2.9769 0zm-12.0917 2.3137c-1.68,0 -3.2347,0.4126 -4.6642,1.2379 -1.4221,0.8326 -2.5569,1.9895 -3.3969,3.4926 -0.84,1.4958 -1.26,3.0801 -1.26,4.7453 0,1.658 0.42,3.2422 1.2674,4.7527 0.8547,1.5106 1.9895,2.6821 3.4263,3.5295 1.4295,0.84 2.9695,1.26 4.6053,1.26 1.6579,0 3.2274,-0.42 4.7085,-1.2526 1.481,-0.8326 2.6232,-1.96 3.419,-3.3895 0.8031,-1.4221 1.201,-3.0285 1.201,-4.8116 0,-2.719 -0.8989,-4.9959 -2.6895,-6.8232 -1.7905,-1.8274 -3.9937,-2.7411 -6.6169,-2.7411z"/>
  <path id="123456789" class="fil4 str1" d="M1212.59 349.935l-2.3948 1.4884c-2.0779,-2.7484 -4.9,-4.1263 -8.4885,-4.1263 -2.8589,0 -5.239,0.921 -7.1327,2.7631 -1.8937,1.8422 -2.8368,4.0822 -2.8368,6.7127 0,1.7169 0.4347,3.3232 1.3042,4.8411 0.8695,1.5106 2.0632,2.6822 3.5811,3.5148 1.5179,0.8326 3.22,1.2526 5.1063,1.2526 3.4559,0 6.278,-1.3705 8.4664,-4.1263l2.3948 1.5768c-1.1274,1.6874 -2.6306,2.9916 -4.5243,3.9201 -1.8937,0.9284 -4.0453,1.3926 -6.4621,1.3926 -3.7137,0 -6.7938,-1.1789 -9.2401,-3.5369 -2.4463,-2.3652 -3.6695,-5.2316 -3.6695,-8.6137 0,-2.2769 0.5674,-4.3916 1.7168,-6.3369 1.1422,-1.9527 2.7117,-3.4706 4.7159,-4.5685 1.9968,-1.0905 4.2369,-1.6431 6.7127,-1.6431 1.5547,0 3.0505,0.2431 4.5021,0.7147 1.4442,0.479 2.6674,1.0979 3.6769,1.8569 1.0095,0.7663 1.8642,1.7316 2.5716,2.9179z"/>
  <path id="12345678910" class="fil4 str1" d="M1218.01 345.05l3.0432 0 0 10.9716c0,2.6748 0.1473,4.5169 0.4347,5.5264 0.4347,1.4369 1.2526,2.5716 2.4684,3.4116 1.2158,0.8327 2.6674,1.2527 4.3548,1.2527 1.68,0 3.1095,-0.4127 4.2811,-1.2232 1.1716,-0.8105 1.9821,-1.879 2.4316,-3.2053 0.3021,-0.9063 0.4495,-2.8295 0.4495,-5.7622l0 -10.9716 3.0874 0 0 11.5317c0,3.2347 -0.3758,5.6737 -1.1274,7.3169 -0.759,1.6431 -1.8937,2.9252 -3.4116,3.8537 -1.5179,0.9284 -3.4264,1.3926 -5.7106,1.3926 -2.2916,0 -4.2,-0.4642 -5.7327,-1.3926 -1.5326,-0.9285 -2.6747,-2.2253 -3.4337,-3.8832 -0.7516,-1.6653 -1.1347,-4.1632 -1.1347,-7.5011l0 -11.318z"/>
  <path id="1234567891011" class="fil4 str1" d="M1245.27 345.05l3.0211 0 0 4.2147c1.2084,-1.6137 2.5495,-2.8221 4.0158,-3.6179 1.4663,-0.7958 3.0653,-1.201 4.7969,-1.201 1.7537,0 3.3084,0.4494 4.6716,1.341 1.3558,0.8916 2.3653,2.0927 3.0063,3.6032 0.6485,1.5106 0.9727,3.8685 0.9727,7.059l0 12.0917 -2.999 0 0 -11.2075c0,-2.7042 -0.1179,-4.5095 -0.3463,-5.4158 -0.3611,-1.5547 -1.0316,-2.719 -2.0263,-3.5074 -0.9948,-0.7811 -2.2916,-1.179 -3.8906,-1.179 -1.8274,0 -3.4632,0.6043 -4.9074,1.8127 -1.4442,1.2158 -2.4021,2.7116 -2.859,4.4948 -0.2874,1.1642 -0.4347,3.2937 -0.4347,6.3884l0 8.6138 -3.0211 0 0 -23.4907z"/>
  <polygon id="123456789101112" class="fil4 str1" points="1270.31,345.05 1287.56,345.05 1274.26,365.866 1287.13,365.866 1287.13,368.54 1269.06,368.54 1282.36,347.71 1270.31,347.71 "/>
  <path id="12345678910111213" class="fil4 str1" d="M1314.42 345.05l0 23.4907 -2.9769 0 0 -4.0379c-1.2673,1.54 -2.6895,2.6968 -4.2663,3.4779 -1.5769,0.7737 -3.3011,1.1642 -5.1727,1.1642 -3.3232,0 -6.16,-1.2084 -8.518,-3.6179 -2.3505,-2.4095 -3.5295,-5.3422 -3.5295,-8.798 0,-3.3821 1.1937,-6.2706 3.5664,-8.6727 2.3726,-2.4021 5.2316,-3.6105 8.5695,-3.6105 1.9306,0 3.6769,0.4126 5.2317,1.2305 1.5621,0.8253 2.9326,2.0558 4.1189,3.6916l0 -4.3179 2.9769 0zm-12.0917 2.3137c-1.68,0 -3.2347,0.4126 -4.6642,1.2379 -1.4221,0.8326 -2.5569,1.9895 -3.3969,3.4926 -0.84,1.4958 -1.26,3.0801 -1.26,4.7453 0,1.658 0.42,3.2422 1.2674,4.7527 0.8547,1.5106 1.9895,2.6821 3.4263,3.5295 1.4295,0.84 2.9695,1.26 4.6053,1.26 1.6579,0 3.2274,-0.42 4.7085,-1.2526 1.481,-0.8326 2.6232,-1.96 3.419,-3.3895 0.8031,-1.4221 1.201,-3.0285 1.201,-4.8116 0,-2.719 -0.8989,-4.9959 -2.6895,-6.8232 -1.7905,-1.8274 -3.9937,-2.7411 -6.6169,-2.7411z"/>
  <path class="fil3" d="M1294.31 329.869l2.6969 -1.6137c1.901,3.4927 4.0969,5.239 6.5874,5.239 1.0611,0 2.0632,-0.2432 2.999,-0.7442 0.9358,-0.4937 1.6505,-1.1569 2.1368,-1.9969 0.4937,-0.8326 0.7369,-1.7168 0.7369,-2.6526 0,-1.0685 -0.3611,-2.1074 -1.0832,-3.1316 -0.9947,-1.4074 -2.8074,-3.1095 -5.4379,-5.0917 -2.6453,-2.0042 -4.2959,-3.4484 -4.9443,-4.34 -1.12,-1.4958 -1.68,-3.1169 -1.68,-4.8558 0,-1.3853 0.3242,-2.6453 0.9874,-3.7801 0.6631,-1.1347 1.5989,-2.0337 2.8,-2.6895 1.2011,-0.6557 2.5053,-0.98 3.9127,-0.98 1.5031,0 2.9032,0.3685 4.2,1.1127 1.3042,0.7368 2.6821,2.1074 4.1337,4.0895l-2.5863 1.9674c-1.1937,-1.5842 -2.2179,-2.6306 -3.0579,-3.1316 -0.84,-0.5011 -1.7611,-0.759 -2.7485,-0.759 -1.2821,0 -2.3284,0.3905 -3.1463,1.1716 -0.8106,0.7737 -1.2158,1.7316 -1.2158,2.8663 0,0.6927 0.14,1.3632 0.4274,2.0116 0.2947,0.6485 0.8179,1.3485 1.5768,2.1148 0.42,0.3979 1.7906,1.459 4.1043,3.1684 2.7484,2.0337 4.6347,3.839 5.6589,5.4232 1.0169,1.5843 1.5327,3.1685 1.5327,4.7675 0,2.3063 -0.8769,4.3031 -2.6232,6.0053 -1.7537,1.6947 -3.8758,2.5421 -6.3811,2.5421 -1.9305,0 -3.6769,-0.5084 -5.2464,-1.54 -1.5694,-1.0316 -3.0137,-2.7558 -4.34,-5.1727z"/>
  <path id="1" class="fil4 str1" d="M1294.31 329.869l2.6969 -1.6137c1.901,3.4927 4.0969,5.239 6.5874,5.239 1.0611,0 2.0632,-0.2432 2.999,-0.7442 0.9358,-0.4937 1.6505,-1.1569 2.1368,-1.9969 0.4937,-0.8326 0.7369,-1.7168 0.7369,-2.6526 0,-1.0685 -0.3611,-2.1074 -1.0832,-3.1316 -0.9947,-1.4074 -2.8074,-3.1095 -5.4379,-5.0917 -2.6453,-2.0042 -4.2959,-3.4484 -4.9443,-4.34 -1.12,-1.4958 -1.68,-3.1169 -1.68,-4.8558 0,-1.3853 0.3242,-2.6453 0.9874,-3.7801 0.6631,-1.1347 1.5989,-2.0337 2.8,-2.6895 1.2011,-0.6557 2.5053,-0.98 3.9127,-0.98 1.5031,0 2.9032,0.3685 4.2,1.1127 1.3042,0.7368 2.6821,2.1074 4.1337,4.0895l-2.5863 1.9674c-1.1937,-1.5842 -2.2179,-2.6306 -3.0579,-3.1316 -0.84,-0.5011 -1.7611,-0.759 -2.7485,-0.759 -1.2821,0 -2.3284,0.3905 -3.1463,1.1716 -0.8106,0.7737 -1.2158,1.7316 -1.2158,2.8663 0,0.6927 0.14,1.3632 0.4274,2.0116 0.2947,0.6485 0.8179,1.3485 1.5768,2.1148 0.42,0.3979 1.7906,1.459 4.1043,3.1684 2.7484,2.0337 4.6347,3.839 5.6589,5.4232 1.0169,1.5843 1.5327,3.1685 1.5327,4.7675 0,2.3063 -0.8769,4.3031 -2.6232,6.0053 -1.7537,1.6947 -3.8758,2.5421 -6.3811,2.5421 -1.9305,0 -3.6769,-0.5084 -5.2464,-1.54 -1.5694,-1.0316 -3.0137,-2.7558 -4.34,-5.1727z"/>
  <path class="fil3" d="M1291.94 380.135l3.0211 0 0 4.2147c1.2084,-1.6137 2.5495,-2.8221 4.0158,-3.6179 1.4663,-0.7958 3.0653,-1.201 4.7969,-1.201 1.7537,0 3.3084,0.4494 4.6716,1.341 1.3558,0.8916 2.3653,2.0927 3.0063,3.6032 0.6485,1.5106 0.9727,3.8685 0.9727,7.059l0 12.0917 -2.999 0 0 -11.2075c0,-2.7042 -0.1179,-4.5095 -0.3463,-5.4158 -0.3611,-1.5547 -1.0316,-2.719 -2.0263,-3.5074 -0.9948,-0.7811 -2.2916,-1.179 -3.8906,-1.179 -1.8274,0 -3.4632,0.6043 -4.9074,1.8127 -1.4442,1.2158 -2.4021,2.7116 -2.859,4.4948 -0.2874,1.1642 -0.4347,3.2937 -0.4347,6.3884l0 8.6138 -3.0211 0 0 -23.4907z"/>
  <path id="1" class="fil4 str1" d="M1291.94 380.135l3.0211 0 0 4.2147c1.2084,-1.6137 2.5495,-2.8221 4.0158,-3.6179 1.4663,-0.7958 3.0653,-1.201 4.7969,-1.201 1.7537,0 3.3084,0.4494 4.6716,1.341 1.3558,0.8916 2.3653,2.0927 3.0063,3.6032 0.6485,1.5106 0.9727,3.8685 0.9727,7.059l0 12.0917 -2.999 0 0 -11.2075c0,-2.7042 -0.1179,-4.5095 -0.3463,-5.4158 -0.3611,-1.5547 -1.0316,-2.719 -2.0263,-3.5074 -0.9948,-0.7811 -2.2916,-1.179 -3.8906,-1.179 -1.8274,0 -3.4632,0.6043 -4.9074,1.8127 -1.4442,1.2158 -2.4021,2.7116 -2.859,4.4948 -0.2874,1.1642 -0.4347,3.2937 -0.4347,6.3884l0 8.6138 -3.0211 0 0 -23.4907z"/>
  <path class="fil3" d="M1312.3 409.899l0 32.554 -2.9842 0 0 -4.0379c-1.26,1.54 -2.6822,2.6968 -4.259,3.4779 -1.5769,0.7737 -3.3011,1.1642 -5.1727,1.1642 -3.3232,0 -6.16,-1.2084 -8.518,-3.6179 -2.3505,-2.4095 -3.5295,-5.3422 -3.5295,-8.798 0,-3.3821 1.1864,-6.2706 3.5664,-8.6727 2.3726,-2.4021 5.2316,-3.6105 8.5695,-3.6105 1.9306,0 3.6695,0.4126 5.2317,1.2305 1.5621,0.8253 2.9326,2.0558 4.1116,3.6916l0 -13.3812 2.9842 0zm-12.0917 11.377c-1.68,0 -3.2347,0.4126 -4.6642,1.2379 -1.4221,0.8326 -2.5569,1.9895 -3.3969,3.4926 -0.84,1.4958 -1.2674,3.0801 -1.2674,4.7453 0,1.658 0.4274,3.2422 1.2748,4.7527 0.8547,1.5106 1.9895,2.6821 3.4263,3.5295 1.4295,0.84 2.9622,1.26 4.6053,1.26 1.6579,0 3.2274,-0.42 4.7085,-1.2526 1.4811,-0.8326 2.6232,-1.96 3.419,-3.3895 0.8031,-1.4221 1.201,-3.0285 1.201,-4.8116 0,-2.719 -0.8989,-4.9959 -2.6895,-6.8232 -1.7905,-1.8274 -3.9937,-2.7411 -6.6169,-2.7411z"/>
  <path id="1" class="fil4 str1" d="M1312.3 409.899l0 32.554 -2.9842 0 0 -4.0379c-1.26,1.54 -2.6822,2.6968 -4.259,3.4779 -1.5769,0.7737 -3.3011,1.1642 -5.1727,1.1642 -3.3232,0 -6.16,-1.2084 -8.518,-3.6179 -2.3505,-2.4095 -3.5295,-5.3422 -3.5295,-8.798 0,-3.3821 1.1864,-6.2706 3.5664,-8.6727 2.3726,-2.4021 5.2316,-3.6105 8.5695,-3.6105 1.9306,0 3.6695,0.4126 5.2317,1.2305 1.5621,0.8253 2.9326,2.0558 4.1116,3.6916l0 -13.3812 2.9842 0zm-12.0917 11.377c-1.68,0 -3.2347,0.4126 -4.6642,1.2379 -1.4221,0.8326 -2.5569,1.9895 -3.3969,3.4926 -0.84,1.4958 -1.2674,3.0801 -1.2674,4.7453 0,1.658 0.4274,3.2422 1.2748,4.7527 0.8547,1.5106 1.9895,2.6821 3.4263,3.5295 1.4295,0.84 2.9622,1.26 4.6053,1.26 1.6579,0 3.2274,-0.42 4.7085,-1.2526 1.4811,-0.8326 2.6232,-1.96 3.419,-3.3895 0.8031,-1.4221 1.201,-3.0285 1.201,-4.8116 0,-2.719 -0.8989,-4.9959 -2.6895,-6.8232 -1.7905,-1.8274 -3.9937,-2.7411 -6.6169,-2.7411z"/>
  <path class="fil3" d="M1299.12 456.783l3.0874 0 0 3.4337c0.921,-1.3484 1.8937,-2.3579 2.9105,-3.0285 1.0242,-0.6705 2.0853,-1.0094 3.1979,-1.0094 0.8327,0 1.7243,0.2726 2.6748,0.8031l-1.5768 2.5495c-0.6337,-0.28 -1.1643,-0.4126 -1.599,-0.4126 -1.0021,0 -1.9748,0.4126 -2.9106,1.2379 -0.9358,0.8326 -1.6505,2.1147 -2.1368,3.8537 -0.3758,1.3411 -0.56,4.0453 -0.56,8.1201l0 7.9432 -3.0874 0 0 -23.4907z"/>
  <path id="1" class="fil4 str1" d="M1299.12 456.783l3.0874 0 0 3.4337c0.921,-1.3484 1.8937,-2.3579 2.9105,-3.0285 1.0242,-0.6705 2.0853,-1.0094 3.1979,-1.0094 0.8327,0 1.7243,0.2726 2.6748,0.8031l-1.5768 2.5495c-0.6337,-0.28 -1.1643,-0.4126 -1.599,-0.4126 -1.0021,0 -1.9748,0.4126 -2.9106,1.2379 -0.9358,0.8326 -1.6505,2.1147 -2.1368,3.8537 -0.3758,1.3411 -0.56,4.0453 -0.56,8.1201l0 7.9432 -3.0874 0 0 -23.4907z"/>
  <path class="fil3" d="M1303.34 492.238c3.6106,0 6.6022,1.3115 8.9822,3.9347 2.159,2.3874 3.2348,5.2169 3.2348,8.4812 0,3.2789 -1.1421,6.1526 -3.419,8.6063 -2.2842,2.4537 -5.2169,3.6769 -8.798,3.6769 -3.5958,0 -6.5358,-1.2232 -8.82,-3.6769 -2.2843,-2.4537 -3.419,-5.3274 -3.419,-8.6063 0,-3.2495 1.0758,-6.0717 3.2348,-8.4591 2.3726,-2.6379 5.3789,-3.9568 9.0042,-3.9568zm0 2.9621c-2.5052,0 -4.6568,0.9284 -6.4548,2.7853 -1.7979,1.8568 -2.6968,4.0969 -2.6968,6.7348 0,1.6947 0.4052,3.2789 1.2305,4.7453 0.8179,1.4737 1.9232,2.601 3.3232,3.4042 1.3926,0.7958 2.9253,1.1937 4.5979,1.1937 1.6653,0 3.198,-0.3979 4.598,-1.1937 1.3926,-0.8032 2.5053,-1.9305 3.3232,-3.4042 0.8179,-1.4664 1.2305,-3.0506 1.2305,-4.7453 0,-2.6379 -0.9063,-4.878 -2.7116,-6.7348 -1.8053,-1.8569 -3.9495,-2.7853 -6.4401,-2.7853z"/>
  <path id="1" class="fil4 str1" d="M1303.34 492.238c3.6106,0 6.6022,1.3115 8.9822,3.9347 2.159,2.3874 3.2348,5.2169 3.2348,8.4812 0,3.2789 -1.1421,6.1526 -3.419,8.6063 -2.2842,2.4537 -5.2169,3.6769 -8.798,3.6769 -3.5958,0 -6.5358,-1.2232 -8.82,-3.6769 -2.2843,-2.4537 -3.419,-5.3274 -3.419,-8.6063 0,-3.2495 1.0758,-6.0717 3.2348,-8.4591 2.3726,-2.6379 5.3789,-3.9568 9.0042,-3.9568zm0 2.9621c-2.5052,0 -4.6568,0.9284 -6.4548,2.7853 -1.7979,1.8568 -2.6968,4.0969 -2.6968,6.7348 0,1.6947 0.4052,3.2789 1.2305,4.7453 0.8179,1.4737 1.9232,2.601 3.3232,3.4042 1.3926,0.7958 2.9253,1.1937 4.5979,1.1937 1.6653,0 3.198,-0.3979 4.598,-1.1937 1.3926,-0.8032 2.5053,-1.9305 3.3232,-3.4042 0.8179,-1.4664 1.2305,-3.0506 1.2305,-4.7453 0,-2.6379 -0.9063,-4.878 -2.7116,-6.7348 -1.8053,-1.8569 -3.9495,-2.7853 -6.4401,-2.7853z"/>
 </g>
</svg>
